%TF.GenerationSoftware,KiCad,Pcbnew,10.0.5*%
%TF.CreationDate,2026-09-15T22:20:29+05:30*%
%TF.ProjectId,DCmotospeedcontroller,44436d6f-746f-4737-9065-6564636f6e74,rev?*%
%TF.SameCoordinates,Original*%
%TF.FileFunction,Soldermask,Top*%
%TF.FilePolarity,Negative*%
%FSLAX46Y46*%
G04 Gerber Fmt 4.6, Leading zero omitted, Abs format (unit mm)*
G04 Created by KiCad (PCBNEW 10.0.5) date 2026-09-15 22:20:29*
%MOMM*%
%LPD*%
G01*
G04 APERTURE LIST*
G04 Aperture macros list*
%AMRoundRect*
0 Rectangle with rounded corners*
0 $1 Rounding radius*
0 $2 $3 $4 $5 $6 $7 $8 $9 X,Y pos of 4 corners*
0 Add a 4 corners polygon primitive as box body*
4,1,4,$2,$3,$4,$5,$6,$7,$8,$9,$2,$3,0*
0 Add four circle primitives for the rounded corners*
1,1,$1+$1,$2,$3*
1,1,$1+$1,$4,$5*
1,1,$1+$1,$6,$7*
1,1,$1+$1,$8,$9*
0 Add four rect primitives between the rounded corners*
20,1,$1+$1,$2,$3,$4,$5,0*
20,1,$1+$1,$4,$5,$6,$7,0*
20,1,$1+$1,$6,$7,$8,$9,0*
20,1,$1+$1,$8,$9,$2,$3,0*%
G04 Aperture macros list end*
%ADD10RoundRect,0.249999X-0.850001X0.850001X-0.850001X-0.850001X0.850001X-0.850001X0.850001X0.850001X0*%
%ADD11C,2.200000*%
%ADD12RoundRect,0.250001X1.149999X-1.149999X1.149999X1.149999X-1.149999X1.149999X-1.149999X-1.149999X0*%
%ADD13C,2.800000*%
%ADD14RoundRect,0.249999X0.850001X-0.850001X0.850001X0.850001X-0.850001X0.850001X-0.850001X-0.850001X0*%
%ADD15C,1.600000*%
%ADD16RoundRect,0.250000X-0.550000X-0.550000X0.550000X-0.550000X0.550000X0.550000X-0.550000X0.550000X0*%
%ADD17C,1.400000*%
%ADD18R,1.800000X1.800000*%
%ADD19C,1.800000*%
%ADD20RoundRect,0.500000X1.000000X0.500000X-1.000000X0.500000X-1.000000X-0.500000X1.000000X-0.500000X0*%
%ADD21C,2.600000*%
%ADD22C,3.800000*%
%ADD23R,1.905000X2.000000*%
%ADD24O,1.905000X2.000000*%
%ADD25RoundRect,0.250000X-0.750000X-0.750000X0.750000X-0.750000X0.750000X0.750000X-0.750000X0.750000X0*%
%ADD26C,2.000000*%
%ADD27RoundRect,0.250001X-1.149999X1.149999X-1.149999X-1.149999X1.149999X-1.149999X1.149999X1.149999X0*%
G04 APERTURE END LIST*
D10*
%TO.C,D3*%
X144500000Y-84420000D03*
D11*
X144500000Y-94580000D03*
%TD*%
D12*
%TO.C,J1*%
X94467500Y-87750000D03*
D13*
X94467500Y-82750000D03*
%TD*%
D14*
%TO.C,D2*%
X121500000Y-101160000D03*
D11*
X121500000Y-91000000D03*
%TD*%
D15*
%TO.C,C2*%
X146000000Y-99500000D03*
X141000000Y-99500000D03*
%TD*%
D16*
%TO.C,U1*%
X131195000Y-86690000D03*
D15*
X131195000Y-89230000D03*
X131195000Y-91770000D03*
X131195000Y-94310000D03*
X138815000Y-94310000D03*
X138815000Y-91770000D03*
X138815000Y-89230000D03*
X138815000Y-86690000D03*
%TD*%
D17*
%TO.C,R3*%
X107000000Y-94690000D03*
X107000000Y-102310000D03*
%TD*%
D18*
%TO.C,RV1*%
X129000000Y-77000000D03*
D19*
X126500000Y-77000000D03*
X124000000Y-77000000D03*
D20*
X131250000Y-81100000D03*
X121750000Y-81100000D03*
%TD*%
D21*
%TO.C,REF\u002A\u002A*%
X92500000Y-75500000D03*
D22*
X92500000Y-75500000D03*
%TD*%
D23*
%TO.C,Q1*%
X137460000Y-78950000D03*
D24*
X140000000Y-78950000D03*
X142540000Y-78950000D03*
%TD*%
D25*
%TO.C,C3*%
X104382323Y-83500000D03*
D26*
X111882323Y-83500000D03*
%TD*%
D27*
%TO.C,J2*%
X152532500Y-87750000D03*
D13*
X152532500Y-92750000D03*
%TD*%
D17*
%TO.C,R1*%
X111000000Y-94690000D03*
X111000000Y-102310000D03*
%TD*%
D21*
%TO.C,REF\u002A\u002A*%
X154500000Y-101500000D03*
D22*
X154500000Y-101500000D03*
%TD*%
D21*
%TO.C,REF\u002A\u002A*%
X155000000Y-75500000D03*
D22*
X155000000Y-75500000D03*
%TD*%
D18*
%TO.C,D4*%
X99225000Y-97000000D03*
D19*
X101765000Y-97000000D03*
%TD*%
D21*
%TO.C,REF\u002A\u002A*%
X92500000Y-101000000D03*
D22*
X92500000Y-101000000D03*
%TD*%
D10*
%TO.C,D1*%
X116500000Y-90920000D03*
D11*
X116500000Y-101080000D03*
%TD*%
D17*
%TO.C,R2*%
X126500000Y-101810000D03*
X126500000Y-94190000D03*
%TD*%
D15*
%TO.C,C1*%
X131500000Y-99500000D03*
X136500000Y-99500000D03*
%TD*%
M02*
