%TF.GenerationSoftware,KiCad,Pcbnew,10.0.5*%
%TF.CreationDate,2026-09-15T22:20:29+05:30*%
%TF.ProjectId,DCmotospeedcontroller,44436d6f-746f-4737-9065-6564636f6e74,rev?*%
%TF.SameCoordinates,Original*%
%TF.FileFunction,Copper,L1,Top*%
%TF.FilePolarity,Positive*%
%FSLAX46Y46*%
G04 Gerber Fmt 4.6, Leading zero omitted, Abs format (unit mm)*
G04 Created by KiCad (PCBNEW 10.0.5) date 2026-09-15 22:20:29*
%MOMM*%
%LPD*%
G01*
G04 APERTURE LIST*
G04 Aperture macros list*
%AMRoundRect*
0 Rectangle with rounded corners*
0 $1 Rounding radius*
0 $2 $3 $4 $5 $6 $7 $8 $9 X,Y pos of 4 corners*
0 Add a 4 corners polygon primitive as box body*
4,1,4,$2,$3,$4,$5,$6,$7,$8,$9,$2,$3,0*
0 Add four circle primitives for the rounded corners*
1,1,$1+$1,$2,$3*
1,1,$1+$1,$4,$5*
1,1,$1+$1,$6,$7*
1,1,$1+$1,$8,$9*
0 Add four rect primitives between the rounded corners*
20,1,$1+$1,$2,$3,$4,$5,0*
20,1,$1+$1,$4,$5,$6,$7,0*
20,1,$1+$1,$6,$7,$8,$9,0*
20,1,$1+$1,$8,$9,$2,$3,0*%
G04 Aperture macros list end*
%TA.AperFunction,ComponentPad*%
%ADD10RoundRect,0.249999X-0.850001X0.850001X-0.850001X-0.850001X0.850001X-0.850001X0.850001X0.850001X0*%
%TD*%
%TA.AperFunction,ComponentPad*%
%ADD11C,2.200000*%
%TD*%
%TA.AperFunction,ComponentPad*%
%ADD12RoundRect,0.250001X1.149999X-1.149999X1.149999X1.149999X-1.149999X1.149999X-1.149999X-1.149999X0*%
%TD*%
%TA.AperFunction,ComponentPad*%
%ADD13C,2.800000*%
%TD*%
%TA.AperFunction,ComponentPad*%
%ADD14RoundRect,0.249999X0.850001X-0.850001X0.850001X0.850001X-0.850001X0.850001X-0.850001X-0.850001X0*%
%TD*%
%TA.AperFunction,ComponentPad*%
%ADD15C,1.600000*%
%TD*%
%TA.AperFunction,ComponentPad*%
%ADD16RoundRect,0.250000X-0.550000X-0.550000X0.550000X-0.550000X0.550000X0.550000X-0.550000X0.550000X0*%
%TD*%
%TA.AperFunction,ComponentPad*%
%ADD17C,1.400000*%
%TD*%
%TA.AperFunction,ComponentPad*%
%ADD18R,1.800000X1.800000*%
%TD*%
%TA.AperFunction,ComponentPad*%
%ADD19C,1.800000*%
%TD*%
%TA.AperFunction,ComponentPad*%
%ADD20RoundRect,0.500000X1.000000X0.500000X-1.000000X0.500000X-1.000000X-0.500000X1.000000X-0.500000X0*%
%TD*%
%TA.AperFunction,ComponentPad*%
%ADD21C,2.600000*%
%TD*%
%TA.AperFunction,ConnectorPad*%
%ADD22C,3.800000*%
%TD*%
%TA.AperFunction,ComponentPad*%
%ADD23R,1.905000X2.000000*%
%TD*%
%TA.AperFunction,ComponentPad*%
%ADD24O,1.905000X2.000000*%
%TD*%
%TA.AperFunction,ComponentPad*%
%ADD25RoundRect,0.250000X-0.750000X-0.750000X0.750000X-0.750000X0.750000X0.750000X-0.750000X0.750000X0*%
%TD*%
%TA.AperFunction,ComponentPad*%
%ADD26C,2.000000*%
%TD*%
%TA.AperFunction,ComponentPad*%
%ADD27RoundRect,0.250001X-1.149999X1.149999X-1.149999X-1.149999X1.149999X-1.149999X1.149999X1.149999X0*%
%TD*%
%TA.AperFunction,Conductor*%
%ADD28C,1.000000*%
%TD*%
%TA.AperFunction,Conductor*%
%ADD29C,0.500000*%
%TD*%
G04 APERTURE END LIST*
D10*
%TO.P,D3,1,K_1*%
%TO.N,Net-(D3-K)*%
X144500000Y-84420000D03*
D11*
%TO.P,D3,2,A_2*%
%TO.N,Net-(D3-A)*%
X144500000Y-94580000D03*
%TD*%
D12*
%TO.P,J1,1,Pin_1_1*%
%TO.N,GND*%
X94467500Y-87750000D03*
D13*
%TO.P,J1,2,Pin_2_2*%
%TO.N,Net-(D3-K)*%
X94467500Y-82750000D03*
%TD*%
D14*
%TO.P,D2,1,K_1*%
%TO.N,Net-(D1-A)*%
X121500000Y-101160000D03*
D11*
%TO.P,D2,2,A_2*%
%TO.N,Net-(D2-A)*%
X121500000Y-91000000D03*
%TD*%
D15*
%TO.P,C2,1*%
%TO.N,Net-(U1-CONT)*%
X146000000Y-99500000D03*
%TO.P,C2,2*%
%TO.N,GND*%
X141000000Y-99500000D03*
%TD*%
D16*
%TO.P,U1,1,GND_1*%
%TO.N,GND*%
X131195000Y-86690000D03*
D15*
%TO.P,U1,2,TRIG_2*%
%TO.N,Net-(U1-THRES)*%
X131195000Y-89230000D03*
%TO.P,U1,3,OUT_3*%
%TO.N,Net-(U1-OUT)*%
X131195000Y-91770000D03*
%TO.P,U1,4,~{RST}_4*%
%TO.N,Net-(D3-K)*%
X131195000Y-94310000D03*
%TO.P,U1,5,CONT_5*%
%TO.N,Net-(U1-CONT)*%
X138815000Y-94310000D03*
%TO.P,U1,6,THRES_6*%
%TO.N,Net-(U1-THRES)*%
X138815000Y-91770000D03*
%TO.P,U1,7,DISCH_7*%
%TO.N,Net-(D1-A)*%
X138815000Y-89230000D03*
%TO.P,U1,8,VCC_8*%
%TO.N,Net-(D3-K)*%
X138815000Y-86690000D03*
%TD*%
D17*
%TO.P,R3,1*%
%TO.N,Net-(D3-K)*%
X107000000Y-94690000D03*
%TO.P,R3,2*%
%TO.N,Net-(D4-A)*%
X107000000Y-102310000D03*
%TD*%
D18*
%TO.P,RV1,1,1_1*%
%TO.N,Net-(D2-A)*%
X129000000Y-77000000D03*
D19*
%TO.P,RV1,2,2_2*%
%TO.N,Net-(U1-THRES)*%
X126500000Y-77000000D03*
%TO.P,RV1,3,3_3*%
%TO.N,Net-(D1-K)*%
X124000000Y-77000000D03*
D20*
%TO.P,RV1,MP*%
%TO.N,N/C*%
X131250000Y-81100000D03*
X121750000Y-81100000D03*
%TD*%
D21*
%TO.P,REF\u002A\u002A,1*%
%TO.N,N/C*%
X92500000Y-75500000D03*
D22*
X92500000Y-75500000D03*
%TD*%
D23*
%TO.P,Q1,1,B_1*%
%TO.N,Net-(Q1-B)*%
X137460000Y-78950000D03*
D24*
%TO.P,Q1,2,C_2*%
%TO.N,Net-(D3-A)*%
X140000000Y-78950000D03*
%TO.P,Q1,3,E_3*%
%TO.N,GND*%
X142540000Y-78950000D03*
%TD*%
D25*
%TO.P,C3,1*%
%TO.N,Net-(D3-K)*%
X104382323Y-83500000D03*
D26*
%TO.P,C3,2*%
%TO.N,GND*%
X111882323Y-83500000D03*
%TD*%
D27*
%TO.P,J2,1,Pin_1_1*%
%TO.N,Net-(D3-K)*%
X152532500Y-87750000D03*
D13*
%TO.P,J2,2,Pin_2_2*%
%TO.N,Net-(D3-A)*%
X152532500Y-92750000D03*
%TD*%
D17*
%TO.P,R1,1*%
%TO.N,Net-(D3-K)*%
X111000000Y-94690000D03*
%TO.P,R1,2*%
%TO.N,Net-(D1-A)*%
X111000000Y-102310000D03*
%TD*%
D21*
%TO.P,REF\u002A\u002A,1*%
%TO.N,N/C*%
X154500000Y-101500000D03*
D22*
X154500000Y-101500000D03*
%TD*%
D21*
%TO.P,REF\u002A\u002A,1*%
%TO.N,N/C*%
X155000000Y-75500000D03*
D22*
X155000000Y-75500000D03*
%TD*%
D18*
%TO.P,D4,1,K_1*%
%TO.N,GND*%
X99225000Y-97000000D03*
D19*
%TO.P,D4,2,A_2*%
%TO.N,Net-(D4-A)*%
X101765000Y-97000000D03*
%TD*%
D21*
%TO.P,REF\u002A\u002A,1*%
%TO.N,N/C*%
X92500000Y-101000000D03*
D22*
X92500000Y-101000000D03*
%TD*%
D10*
%TO.P,D1,1,K_1*%
%TO.N,Net-(D1-K)*%
X116500000Y-90920000D03*
D11*
%TO.P,D1,2,A_2*%
%TO.N,Net-(D1-A)*%
X116500000Y-101080000D03*
%TD*%
D17*
%TO.P,R2,1*%
%TO.N,Net-(U1-OUT)*%
X126500000Y-101810000D03*
%TO.P,R2,2*%
%TO.N,Net-(Q1-B)*%
X126500000Y-94190000D03*
%TD*%
D15*
%TO.P,C1,1*%
%TO.N,Net-(U1-THRES)*%
X131500000Y-99500000D03*
%TO.P,C1,2*%
%TO.N,GND*%
X136500000Y-99500000D03*
%TD*%
%TO.N,Net-(D3-K)*%
D28*
X111000000Y-89500000D02*
X111000000Y-94690000D01*
X147830000Y-87750000D02*
X144500000Y-84420000D01*
X124385000Y-87500000D02*
X113000000Y-87500000D01*
X104382323Y-83500000D02*
X104382323Y-92072323D01*
X152532500Y-87750000D02*
X147830000Y-87750000D01*
X104382323Y-92072323D02*
X107000000Y-94690000D01*
X107000000Y-94690000D02*
X111000000Y-94690000D01*
X113000000Y-87500000D02*
X111000000Y-89500000D01*
X94467500Y-82750000D02*
X103632323Y-82750000D01*
X103632323Y-82750000D02*
X104382323Y-83500000D01*
X131195000Y-94310000D02*
X124385000Y-87500000D01*
%TO.N,Net-(D3-A)*%
X152532500Y-92750000D02*
X146330000Y-92750000D01*
X146330000Y-92750000D02*
X144500000Y-94580000D01*
X144500000Y-94580000D02*
X143080000Y-94580000D01*
X141500000Y-80450000D02*
X140000000Y-78950000D01*
X143080000Y-94580000D02*
X141500000Y-93000000D01*
X141500000Y-93000000D02*
X141500000Y-80450000D01*
%TO.N,GND*%
D29*
X134500000Y-83500000D02*
X134500000Y-75000000D01*
X142540000Y-76540000D02*
X142540000Y-78950000D01*
X131195000Y-86690000D02*
X131005000Y-86500000D01*
X135500000Y-74000000D02*
X140000000Y-74000000D01*
X136500000Y-99500000D02*
X141000000Y-99500000D01*
X134500000Y-75000000D02*
X135500000Y-74000000D01*
X131195000Y-86690000D02*
X131310000Y-86690000D01*
X140000000Y-74000000D02*
X142540000Y-76540000D01*
X131310000Y-86690000D02*
X134500000Y-83500000D01*
%TO.N,Net-(D1-A)*%
X121500000Y-101080000D02*
X124330000Y-98250000D01*
X124330000Y-98250000D02*
X129795000Y-98250000D01*
X111000000Y-102310000D02*
X115270000Y-102310000D01*
X129795000Y-98250000D02*
X138815000Y-89230000D01*
X121500000Y-101080000D02*
X116500000Y-101080000D01*
X115270000Y-102310000D02*
X116500000Y-101080000D01*
%TO.N,Net-(U1-CONT)*%
X144005000Y-99500000D02*
X138815000Y-94310000D01*
X146000000Y-99500000D02*
X144005000Y-99500000D01*
%TO.N,Net-(U1-THRES)*%
X139332767Y-87980000D02*
X140065000Y-88712233D01*
X140065000Y-88712233D02*
X140065000Y-90520000D01*
X126500000Y-77000000D02*
X126500000Y-84535000D01*
X132445000Y-87980000D02*
X139332767Y-87980000D01*
X131195000Y-89230000D02*
X132445000Y-87980000D01*
X126500000Y-84535000D02*
X131195000Y-89230000D01*
X140065000Y-90520000D02*
X138815000Y-91770000D01*
%TO.N,Net-(D4-A)*%
X101765000Y-97000000D02*
X107000000Y-102235000D01*
X107000000Y-102235000D02*
X107000000Y-102310000D01*
%TD*%
M02*
