M48
; DRILL file KiCad 10.0.5 date 2026-09-15T22:21:33
; FORMAT={-:-/ absolute / metric / decimal}
; #@! TF.CreationDate,2026-09-15T22:21:33+05:30
; #@! TF.GenerationSoftware,Kicad,Pcbnew,10.0.5
; #@! TF.FileFunction,MixedPlating,1,2
FMAT,2
METRIC
; #@! TA.AperFunction,Plated,PTH,ComponentDrill
T1C0.700
; #@! TA.AperFunction,Plated,PTH,ComponentDrill
T2C0.800
; #@! TA.AperFunction,Plated,PTH,ComponentDrill
T3C0.900
; #@! TA.AperFunction,Plated,PTH,ComponentDrill
T4C1.000
; #@! TA.AperFunction,Plated,PTH,ComponentDrill
T5C1.100
; #@! TA.AperFunction,Plated,PTH,ComponentDrill
T6C1.300
; #@! TA.AperFunction,Plated,PTH,ComponentDrill
T7C2.200
%
G90
G05
T1
X107.0Y-94.69
X107.0Y-102.31
X111.0Y-94.69
X111.0Y-102.31
X126.5Y-94.19
X126.5Y-101.81
T2
X131.195Y-86.69
X131.195Y-89.23
X131.195Y-91.77
X131.195Y-94.31
X131.5Y-99.5
X136.5Y-99.5
X138.815Y-86.69
X138.815Y-89.23
X138.815Y-91.77
X138.815Y-94.31
X141.0Y-99.5
X146.0Y-99.5
T3
X99.225Y-97.0
X101.765Y-97.0
T4
X104.382Y-83.5
X111.882Y-83.5
X124.0Y-77.0
X126.5Y-77.0
X129.0Y-77.0
T5
X116.5Y-90.92
X116.5Y-101.08
X121.5Y-91.0
X121.5Y-101.16
X137.46Y-78.95
X140.0Y-78.95
X142.54Y-78.95
X144.5Y-84.42
X144.5Y-94.58
T6
X94.468Y-82.75
X94.468Y-87.75
X152.532Y-87.75
X152.532Y-92.75
T7
X92.5Y-75.5
X92.5Y-101.0
X154.5Y-101.5
X155.0Y-75.5
T5
G00X122.1Y-81.1
M15
G01X121.4Y-81.1
M16
G05
G00X131.6Y-81.1
M15
G01X130.9Y-81.1
M16
G05
M30
